<svg width="48" height="48" viewBox="0 0 48 48" fill="none" xmlns="http://www.w3.org/2000/svg">
<rect width="48" height="48" fill="white"/>
<path d="M23 13.8284H13.6667C12.9594 13.8284 12.2811 14.1094 11.781 14.6095C11.281 15.1096 11 15.7879 11 16.4951V35.1618C11 35.869 11.281 36.5473 11.781 37.0474C12.2811 37.5475 12.9594 37.8284 13.6667 37.8284H32.3333C33.0406 37.8284 33.7189 37.5475 34.219 37.0474C34.719 36.5473 35 35.869 35 35.1618V25.8284" stroke="black" stroke-width="2.66667" stroke-linecap="round" stroke-linejoin="round"/>
<path d="M33 11.8284C33.5304 11.298 34.2499 11 35 11C35.7501 11 36.4696 11.298 37 11.8284C37.5304 12.3589 37.8284 13.0783 37.8284 13.8284C37.8284 14.5786 37.5304 15.298 37 15.8284L24.3333 28.4951L19 29.8284L20.3333 24.4951L33 11.8284Z" stroke="black" stroke-width="2.66667" stroke-linecap="round" stroke-linejoin="round"/>
</svg>
